<svg width="242" height="206" xmlns="http://www.w3.org/2000/svg" xmlns:xlink="http://www.w3.org/1999/xlink"><svg width="110.94" height="24.54" viewBox="-1 -1 110.94 24.54" y="181.37" xmlns="http://www.w3.org/2000/svg"><defs><clipPath id="a" transform="translate(-70.26 -72.87)"><path fill="none" d="M65.51 63.27h123v40.14h-123z"/></clipPath><clipPath id="b" transform="translate(-70.26 -72.87)"><path fill="none" d="M0 0h252.42v168.28H0z"/></clipPath></defs><g data-name="Layer 2"><g clip-path="url(#a)" fill="#231f20" data-name="Layer 1"><g clip-path="url(#b)"><path d="M4.39 13.74c0 2.15 0 2.8 2.36 2.8V17H.95v-.46c2.36 0 2.36-.65 2.36-2.8V2.23A3.66 3.66 0 000 .46V0h4.55l10.19 12.71V3.26c0-2.16 0-2.8-2.37-2.8V0h5.83v.46c-2.39 0-2.39.64-2.39 2.8v14h-.43L4.44 3.62zm14.35-3.88c0 2.57 1.31 5.44 4.06 5.44 1.82 0 2.79-1.08 3.36-2.75l.38.26c-.43 2.36-2 4.54-4.59 4.54-2.75 0-4.93-2.38-4.93-5.9 0-3.32 1.65-6.32 5.21-6.32 2.6 0 4.31 1.93 4.31 4.7zm5.24-.73c0-1.59-.77-3-2.57-3-1.49 0-2.54 1.51-2.64 3zm12.96 4.84c0 1.74.54 1.74.87 1.74a2.63 2.63 0 00.88-.2l.15.43-3.39 1.41h-.56v-2.44c-1.15 1.22-2.15 2.44-3.83 2.44-1.84 0-2.85-1.61-2.85-3.77v-5.6c0-1.56-.18-1.95-1.87-2v-.46h3.9v8c0 1.44.62 2.32 1.9 2.32a4.42 4.42 0 002.75-1.71V7.98c0-1.56-.16-1.95-1.85-2v-.46h3.9zm7.68-8.45v.93h-2.65v7.05c0 1.06 0 2.21 1.18 2.21a1.52 1.52 0 001.31-1h.52a3.38 3.38 0 01-2.91 2.42c-.79 0-2.13-.54-2.13-2.75v-8h-1.77v-.45c1.39-.59 2.49-1.82 3.42-4.18h.38v3.77zm4.23 2.11c.54-.93 1.52-2.47 2.85-2.47a1.56 1.56 0 011.6 1.41 1.16 1.16 0 01-1.11 1.16c-.8 0-1.23-.85-1.77-.85s-1.39 1.44-1.62 1.93v4.82c0 2.08 0 2.9 2.08 2.9V17h-5.85v-.47c1.15 0 1.72-.2 1.72-1.72V8.55c0-1.75-.51-1.75-.88-1.75a2.26 2.26 0 00-.84.21l-.18-.44 3.44-1.44h.56zm14.81 3.36c0 2.64-1.61 6.36-5.59 6.36-3.18 0-5.29-2.9-5.29-6s2.18-6.22 5.47-6.22a5.58 5.58 0 015.41 5.83m-8.57-.72c0 2.21.77 6.21 3.57 6.21 2.28 0 2.72-2.61 2.72-4.41 0-2.24-.77-6-3.54-6-1.26 0-2.75.95-2.75 4.24m19.28-4.3c.46 0 .54.13.54.54s-.08.57-.54.57h-1.72a4.87 4.87 0 01.59 2.31c0 1.92-1.44 3.9-4.52 3.9a5.35 5.35 0 01-1.59-.26 2.26 2.26 0 00-.95 1.47c0 .61.56.79 4.47.82 2.92 0 4.05 1 4.05 2.9 0 1.56-2.15 4.31-6.26 4.31-1.75 0-5-.69-5-2.44 0-.82 1.15-2 1.67-2.62l.64-.66c-.54-.24-1.23-.62-1.23-1.29 0-1.1 1.23-2.05 2-2.72a3.72 3.72 0 01-2.13-3.47 4.25 4.25 0 014.54-4.21 4.48 4.48 0 012.72.82zM65.28 19.2c0 1.05 1.75 1.82 4.13 1.82 3.14 0 4.39-1.35 4.39-2.48s-2-1.26-3.15-1.26a28.46 28.46 0 01-4.29-.28 4.06 4.06 0 00-1.08 2.2m1.23-10.42c0 1.59.54 3.9 2.47 3.9 2.13 0 2.13-2.46 2.13-3 0-1.56-.59-3.87-2.49-3.87-.72 0-2.11.46-2.11 3"/><path d="M76.4 9.86c0 2.57 1.31 5.44 4.05 5.44 1.83 0 2.8-1.08 3.36-2.75l.39.26c-.44 2.36-2.05 4.54-4.6 4.54-2.74 0-4.93-2.38-4.93-5.9 0-3.31 1.65-6.29 5.22-6.29 2.59 0 4.31 1.93 4.31 4.7zm5.23-.77c0-1.59-.77-3-2.56-3-1.49 0-2.55 1.51-2.65 3zm6.6-1.51c1.41-1.6 2.39-2.42 3.83-2.42 2 0 2.84 2 2.84 3.88v5.77c0 1.52.57 1.7 1.75 1.72V17h-5.52v-.47c1.16 0 1.72-.2 1.72-1.72V9.5c0-2.54-1-2.8-1.77-2.8a4.07 4.07 0 00-2.85 1.64v6.47c0 1.52.56 1.7 1.75 1.72V17h-5.53v-.47c1.16 0 1.73-.2 1.73-1.72V8.55c0-1.75-.52-1.75-.88-1.75a2.31 2.31 0 00-.85.21l-.17-.44 3.38-1.44h.57zm16.58 6.21c0 1.15 0 2 .65 2 .38 0 1-.68 1.3-1v.72c-.59.77-1.56 1.87-2.61 1.87s-1.36-.92-1.36-1.87c-1.16.85-2 1.87-3.57 1.87a2.69 2.69 0 01-2.7-3c0-2.87 4.18-3.9 6.27-4.83 0-1.92-.13-3.59-2.09-3.59a1.55 1.55 0 00-1.69 1.51c0 1.24-.23 1.83-1 1.83s-1-.56-1-1.24.72-2.87 4.16-2.87c3.69 0 3.69 2.39 3.69 3.11zm-2-3.52c-1.7.69-4.22 1.59-4.22 3.54a2 2 0 001.78 2.11 5 5 0 002.44-1.26z"/></g><path d="M108.94 7.07a1.15 1.15 0 01-1.2 1.16 1.16 1.16 0 111.17-1.16zm-2.07 0a.89.89 0 00.9.92.93.93 0 00-.03-1.86.89.89 0 00-.87.94zm.71.6h-.26V6.52a2.27 2.27 0 01.44 0 .71.71 0 01.4.09.33.33 0 01.11.25c0 .13-.1.22-.24.27a.34.34 0 01.21.28.86.86 0 00.09.29h-.29a.75.75 0 01-.09-.28c0-.13-.09-.18-.24-.18h-.13zm0-.65h.16c.14 0 .26 0 .26-.17s-.07-.18-.24-.18h-.15z"/></g></g></svg><svg width="153" height="44.99" viewBox="-1 -1 153 44.99" y="115.41" xmlns="http://www.w3.org/2000/svg"><g data-name="Layer 2"><rect width="151" height="42.99" rx="21.5" fill="#00aeef" data-name="Layer 1"/></g></svg><svg width="124.38" height="20.97" viewBox="-1 -1 124.38 20.97" y="160.4" xmlns="http://www.w3.org/2000/svg"><path data-name="COMPRAR ACÁ" d="M6.29 6.53a1.443 1.443 0 00-1.406-.739 1.406 1.406 0 00-.927.3 2 2 0 00-.573.979 8.341 8.341 0 00-.292 1.771q-.084 1.094-.083 2.677a25.967 25.967 0 00.115 2.729 6.048 6.048 0 00.354 1.615 1.478 1.478 0 00.6.771 1.739 1.739 0 00.844.2 1.986 1.986 0 00.74-.136 1.253 1.253 0 00.594-.542 3.515 3.515 0 00.4-1.145 10.477 10.477 0 00.146-1.948h3a13.426 13.426 0 01-.187 2.291 5.181 5.181 0 01-.7 1.9 3.463 3.463 0 01-1.437 1.271 5.451 5.451 0 01-2.406.458 5.662 5.662 0 01-2.687-.541 3.653 3.653 0 01-1.531-1.563 6.884 6.884 0 01-.687-2.437 31.238 31.238 0 010-6.24 6.909 6.909 0 01.688-2.448 3.858 3.858 0 011.531-1.594 5.411 5.411 0 012.688-.572 5.19 5.19 0 012.531.52A3.554 3.554 0 018.99 5.43a4.6 4.6 0 01.573 1.729 14.3 14.3 0 01.115 1.74h-3A5.407 5.407 0 006.29 6.53zm7.979 7.334a7.047 7.047 0 00.291 1.708 1.893 1.893 0 00.625.958 2.051 2.051 0 002.146 0 1.893 1.893 0 00.625-.958 7.091 7.091 0 00.292-1.708q.072-1.052.073-2.552t-.073-2.542a7.22 7.22 0 00-.292-1.708 1.9 1.9 0 00-.625-.969 2.057 2.057 0 00-2.146 0 1.9 1.9 0 00-.625.969 7.175 7.175 0 00-.291 1.708q-.074 1.043-.073 2.542t.073 2.552zm-2.917-5.667a6.907 6.907 0 01.687-2.448 3.863 3.863 0 011.532-1.594 6.6 6.6 0 015.375 0 3.861 3.861 0 011.531 1.594 6.907 6.907 0 01.687 2.448 31.08 31.08 0 010 6.24 6.882 6.882 0 01-.687 2.437 3.655 3.655 0 01-1.531 1.563 6.946 6.946 0 01-5.375 0 3.657 3.657 0 01-1.532-1.563 6.882 6.882 0 01-.687-2.437 31.278 31.278 0 01.004-6.24zm16.26-4.323l2.125 10.5h.042l2.146-10.5h4.437v14.875h-2.75V6.874h-.041l-2.646 11.875h-2.334L25.946 6.874h-.042v11.875h-2.748V3.874h4.458zm15.229 6.729a1.979 1.979 0 001.448-.541 2.276 2.276 0 00.552-1.688 2.638 2.638 0 00-.479-1.708 1.966 1.966 0 00-1.6-.583h-1.25v4.52h1.333zm.917-6.729a4.33 4.33 0 011.927.386 3.505 3.505 0 011.26 1.01 3.951 3.951 0 01.688 1.427 6.477 6.477 0 01.208 1.636 5.321 5.321 0 01-.344 2 3.623 3.623 0 01-.958 1.395 4 4 0 01-1.489.813 6.526 6.526 0 01-1.938.271h-1.6v5.937h-3V3.874h5.25zm11.1 0a4.179 4.179 0 012.917.948 3.714 3.714 0 011.041 2.886 4.479 4.479 0 01-.6 2.447 2.793 2.793 0 01-1.875 1.219v.042a2.716 2.716 0 011.646.729 3.1 3.1 0 01.646 1.813q.04.417.062.906t.042 1.094q.042 1.187.125 1.812a1.162 1.162 0 00.542.854v.125h-3.248a1.61 1.61 0 01-.292-.719 7.74 7.74 0 01-.083-.843l-.084-2.854a2.352 2.352 0 00-.437-1.375 1.6 1.6 0 00-1.334-.5h-1.6v6.291h-3V3.874h5.542zm-1.292 6.5a2.457 2.457 0 001.667-.51 2.184 2.184 0 00.583-1.719 1.832 1.832 0 00-2.083-2.062h-1.417v4.291h1.25zm10.625 2.771l1.438-6.687h.041l1.438 6.687h-2.917zm-.4-9.271l-3.937 14.875h3.125l.687-3.146h3.959l.687 3.146h3.125L67.5 3.874h-3.709zm14.23 0a4.174 4.174 0 012.916.948 3.711 3.711 0 011.042 2.886 4.487 4.487 0 01-.6 2.447 2.793 2.793 0 01-1.875 1.219v.042a2.719 2.719 0 011.646.729 3.089 3.089 0 01.645 1.813q.042.417.063.906t.042 1.094q.041 1.187.125 1.812a1.161 1.161 0 00.541.854v.125h-3.25a1.6 1.6 0 01-.291-.719 7.993 7.993 0 01-.084-.843l-.083-2.854a2.346 2.346 0 00-.438-1.375 1.6 1.6 0 00-1.333-.5h-1.6v6.291h-3V3.874h5.542zm-1.292 6.5a2.457 2.457 0 001.667-.51 2.188 2.188 0 00.583-1.719 1.832 1.832 0 00-2.083-2.062h-1.417v4.291h1.25zm15.625 2.771l1.437-6.687h.042l1.437 6.687h-2.916zm-.4-9.271l-3.938 14.875h3.14l.688-3.146h3.958l.688 3.146h3.125L95.677 3.874h-3.711zM106.61 6.53a1.443 1.443 0 00-1.406-.739 1.406 1.406 0 00-.927.3 2 2 0 00-.573.979 8.383 8.383 0 00-.292 1.771q-.083 1.094-.083 2.677a26.131 26.131 0 00.114 2.729 6.071 6.071 0 00.355 1.615 1.476 1.476 0 00.6.771 1.74 1.74 0 00.844.2 1.985 1.985 0 00.739-.136 1.255 1.255 0 00.594-.542 3.521 3.521 0 00.4-1.145 10.475 10.475 0 00.146-1.948h3a13.425 13.425 0 01-.188 2.291 5.185 5.185 0 01-.7 1.9 3.464 3.464 0 01-1.437 1.271 5.458 5.458 0 01-2.407.458 5.661 5.661 0 01-2.687-.541 3.649 3.649 0 01-1.531-1.563 6.861 6.861 0 01-.688-2.437 31.278 31.278 0 010-6.24 6.887 6.887 0 01.688-2.448 3.855 3.855 0 011.531-1.594 5.41 5.41 0 012.687-.572 5.194 5.194 0 012.532.52 3.561 3.561 0 011.385 1.323 4.611 4.611 0 01.573 1.729 14.321 14.321 0 01.115 1.74h-3a5.4 5.4 0 00-.372-2.369zm12.614-6.531l-2.041 3h-1.947l1.125-3h2.875zm-1.187 13.146l-1.438-6.687h-.041l-1.438 6.687h2.917zm.4-9.271l3.937 14.875h-3.118l-.687-3.146h-3.959l-.687 3.146h-3.125l3.937-14.875h3.709z" fill="#fff" fill-rule="evenodd"/></svg><svg width="241.03" height="35.19" viewBox="-1 -1 241.03 35.19" xmlns="http://www.w3.org/2000/svg"><path data-name="Más hidratación," d="M6.676 5.812l3.188 15.75h.063l3.217-15.75H19.8v22.311h-4.124V10.312h-.062l-3.97 17.811h-3.5L4.176 10.312h-.062v17.811H-.011V5.812h6.688zM34.113 0l-3.062 4.5h-2.938L29.801 0h4.313zm-1.781 19.712L30.176 9.686h-.063l-2.156 10.026h4.375zm.594-13.9l5.906 22.313h-4.688l-1.031-4.719h-5.937l-1.032 4.717h-4.687l5.906-22.311h5.563zm11.094 16a7.43 7.43 0 00.125 1.422 2.476 2.476 0 00.468 1.078 2.3 2.3 0 00.922.688 3.668 3.668 0 001.453.25 2.874 2.874 0 001.859-.672 2.519 2.519 0 00.828-2.078 3.729 3.729 0 00-.2-1.3 2.569 2.569 0 00-.672-.984 4.777 4.777 0 00-1.234-.8 17.773 17.773 0 00-1.891-.734 16.143 16.143 0 01-2.594-1.094 6.976 6.976 0 01-1.828-1.391 4.973 4.973 0 01-1.078-1.844 7.754 7.754 0 01-.344-2.422 6.239 6.239 0 011.844-4.937 7.392 7.392 0 015.063-1.625 11.006 11.006 0 012.766.328 5.8 5.8 0 012.188 1.063 4.977 4.977 0 011.438 1.875 6.6 6.6 0 01.516 2.734v.625h-4.317a4.477 4.477 0 00-.562-2.453 2.071 2.071 0 00-1.875-.859 3.13 3.13 0 00-1.25.219 2.107 2.107 0 00-.8.578 1.988 1.988 0 00-.401.833 4.235 4.235 0 00-.109.969 3.221 3.221 0 00.438 1.734 3.918 3.918 0 001.871 1.297l3.469 1.5a10.644 10.644 0 012.094 1.172 5.721 5.721 0 011.3 1.313 4.374 4.374 0 01.672 1.547 8.659 8.659 0 01.188 1.875q0 3.532-2.047 5.141a9.014 9.014 0 01-5.7 1.609q-3.813 0-5.453-1.656a6.465 6.465 0 01-1.641-4.75v-.909h4.5v.658zm24.593-16v8.53h5.25v-8.53h4.5v22.311h-4.5v-9.911h-5.25v9.906h-4.5V5.812h4.5zm13.094 0h4.5v22.311h-4.5V5.812zm14.562 19a3.86 3.86 0 001.906-.406 2.785 2.785 0 001.141-1.344 7.849 7.849 0 00.562-2.469q.141-1.531.141-3.812 0-1.906-.125-3.344a8.225 8.225 0 00-.516-2.391 2.975 2.975 0 00-1.156-1.437 3.8 3.8 0 00-2.047-.484h-1.906v15.687h2zm.875-19a8.045 8.045 0 013.781.766 5.457 5.457 0 012.235 2.188 9.745 9.745 0 011.078 3.422 32.364 32.364 0 01.281 4.469 31.777 31.777 0 01-.359 5.109 9.77 9.77 0 01-1.235 3.578 5.413 5.413 0 01-2.343 2.094 8.783 8.783 0 01-3.719.688h-7.094V5.812h7.375zm18.656 0a6.267 6.267 0 014.375 1.422 5.567 5.567 0 011.563 4.328 6.73 6.73 0 01-.907 3.672 4.2 4.2 0 01-2.812 1.828v.063a4.078 4.078 0 012.469 1.094 4.641 4.641 0 01.968 2.719q.063.626.094 1.359t.063 1.641q.061 1.781.187 2.719a1.748 1.748 0 00.813 1.281v.188h-4.875a2.411 2.411 0 01-.438-1.078 12.3 12.3 0 01-.125-1.266l-.125-4.281a3.529 3.529 0 00-.656-2.062 2.406 2.406 0 00-2-.75h-2.406v9.438h-4.5V5.812h8.312zm-1.937 9.75a3.681 3.681 0 002.5-.766 3.278 3.278 0 00.875-2.578q0-3.094-3.125-3.094h-2.125v6.438h1.875zm15.937 4.15l2.156-10.031h.063l2.156 10.031H129.8zm-.594-13.9L123.3 28.125h4.687l1.032-4.719h5.937l1.031 4.719h4.688l-5.906-22.313h-5.563zM155.3 9.5h-4.875v18.623h-4.5V9.498h-4.875V5.812h14.25V9.5zm6.875 10.212l2.156-10.031h.063l2.156 10.031h-4.375zm-.594-13.9l-5.906 22.313h4.687l1.032-4.719h5.937l1.031 4.719h4.688l-5.906-22.313h-5.563zm21.984 3.984a2.162 2.162 0 00-2.109-1.109 2.111 2.111 0 00-1.391.453 3.009 3.009 0 00-.859 1.469 12.536 12.536 0 00-.437 2.656q-.126 1.641-.125 4.016a39.209 39.209 0 00.171 4.094 9.087 9.087 0 00.529 2.42 2.211 2.211 0 00.906 1.156 2.6 2.6 0 001.266.3 3 3 0 001.109-.2 1.88 1.88 0 00.891-.812 5.29 5.29 0 00.593-1.719 15.658 15.658 0 00.219-2.922h4.5a20.194 20.194 0 01-.281 3.438 7.8 7.8 0 01-1.047 2.844 5.207 5.207 0 01-2.156 1.899 8.174 8.174 0 01-3.61.688 8.492 8.492 0 01-4.031-.812 5.479 5.479 0 01-2.3-2.344 10.324 10.324 0 01-1.031-3.656 46.91 46.91 0 010-9.359 10.356 10.356 0 011.031-3.672 5.775 5.775 0 012.3-2.391 8.1 8.1 0 014.031-.859 7.785 7.785 0 013.8.781 5.314 5.314 0 012.078 1.984 6.893 6.893 0 01.86 2.594 21.455 21.455 0 01.172 2.609h-4.5a8.09 8.09 0 00-.579-3.547zm8.047-3.984h4.5v22.311h-4.5V5.812zM210.549 0l-3.062 4.5h-2.938l1.688-4.5h4.312zm-6.953 20.8a10.617 10.617 0 00.438 2.562 2.843 2.843 0 00.937 1.438 3.085 3.085 0 003.219 0 2.843 2.843 0 00.937-1.437 10.617 10.617 0 00.438-2.562q.11-1.578.109-3.828t-.109-3.812a10.814 10.814 0 00-.438-2.562 2.85 2.85 0 00-.937-1.453 3.085 3.085 0 00-3.219 0 2.85 2.85 0 00-.937 1.453 10.814 10.814 0 00-.438 2.563q-.11 1.563-.109 3.813t.109 3.82zm-4.375-8.5a10.356 10.356 0 011.031-3.672 5.781 5.781 0 012.3-2.391 9.886 9.886 0 018.063 0 5.781 5.781 0 012.3 2.391 10.356 10.356 0 011.031 3.672 46.91 46.91 0 010 9.359 10.324 10.324 0 01-1.037 3.653 5.484 5.484 0 01-2.3 2.344 10.408 10.408 0 01-8.063 0 5.484 5.484 0 01-2.3-2.344 10.324 10.324 0 01-1.031-3.656 46.91 46.91 0 01.006-9.361zm28.235 8.8h.062V5.812h4.126v22.311h-5.125l-5.5-15.625h-.062v15.625h-4.125V5.812h5.187zm11.562 6.212a13.658 13.658 0 01-.172 2.2 4.984 4.984 0 01-.641 1.813 3.727 3.727 0 01-1.265 1.25 4.854 4.854 0 01-2.047.609v-2.186a1.71 1.71 0 001.218-.875 3.183 3.183 0 00.407-1.594v-.406h-1.625v-4.875h4.125v4.064z" fill="#00aeef" fill-rule="evenodd"/></svg><svg width="175.75" height="30.47" viewBox="-1 -1 175.75 30.47" y="60.28" xmlns="http://www.w3.org/2000/svg"><path data-name="más cuidado" d="M6.675 5.812l3.188 15.75h.063l3.218-15.75H19.8v22.311h-4.125V10.312h-.062l-3.969 17.811h-3.5L4.175 10.312h-.062v17.811H-.012V5.812h6.688zM34.112 0L31.05 4.5h-2.937L29.801 0h4.313zm-1.781 19.712L30.175 9.686h-.062l-2.157 10.026h4.375zm.594-13.9l5.906 22.313h-4.687l-1.031-4.719h-5.938l-1.031 4.719h-4.688l5.907-22.313h5.563zm11.094 16a7.39 7.39 0 00.125 1.422 2.47 2.47 0 00.469 1.078 2.3 2.3 0 00.922.688 3.665 3.665 0 001.453.25 2.873 2.873 0 001.859-.672 2.518 2.518 0 00.828-2.078 3.737 3.737 0 00-.2-1.3 2.567 2.567 0 00-.672-.984 4.77 4.77 0 00-1.234-.8 17.808 17.808 0 00-1.891-.734 16.146 16.146 0 01-2.594-1.094 7 7 0 01-1.828-1.391 4.975 4.975 0 01-1.078-1.844 7.754 7.754 0 01-.344-2.422 6.24 6.24 0 011.844-4.937 7.393 7.393 0 015.063-1.625 11 11 0 012.765.328 5.805 5.805 0 012.188 1.063 4.971 4.971 0 011.437 1.875 6.6 6.6 0 01.516 2.734v.625h-4.313a4.477 4.477 0 00-.562-2.453 2.071 2.071 0 00-1.875-.859 3.13 3.13 0 00-1.25.219 2.105 2.105 0 00-.8.578 1.992 1.992 0 00-.406.828 4.247 4.247 0 00-.11.969 3.221 3.221 0 00.438 1.734 3.912 3.912 0 001.875 1.3l3.469 1.5a10.636 10.636 0 012.093 1.172 5.708 5.708 0 011.3 1.313 4.37 4.37 0 01.672 1.547 8.658 8.658 0 01.188 1.875q0 3.532-2.047 5.141a9.015 9.015 0 01-5.7 1.609q-3.813 0-5.453-1.656a6.463 6.463 0 01-1.641-4.75v-.907h4.5v.658zM73.065 9.796a2.163 2.163 0 00-2.109-1.109 2.11 2.11 0 00-1.391.453 3.009 3.009 0 00-.859 1.469 12.464 12.464 0 00-.438 2.656q-.124 1.641-.125 4.016a39.166 39.166 0 00.172 4.094 9.087 9.087 0 00.532 2.422 2.211 2.211 0 00.906 1.156 2.6 2.6 0 001.265.3 3 3 0 001.11-.2 1.878 1.878 0 00.89-.812 5.288 5.288 0 00.594-1.719 15.658 15.658 0 00.219-2.922h4.5a20.194 20.194 0 01-.281 3.438 7.8 7.8 0 01-1.047 2.844 5.207 5.207 0 01-2.156 1.906 8.174 8.174 0 01-3.61.688 8.492 8.492 0 01-4.031-.812 5.479 5.479 0 01-2.3-2.344 10.324 10.324 0 01-1.031-3.656 46.711 46.711 0 010-9.359 10.356 10.356 0 011.031-3.672 5.775 5.775 0 012.3-2.391 8.1 8.1 0 014.031-.859 7.785 7.785 0 013.8.781 5.314 5.314 0 012.078 1.984 6.893 6.893 0 01.86 2.594 21.444 21.444 0 01.171 2.609h-4.5a8.093 8.093 0 00-.581-3.556zm12.047 11.578a10.091 10.091 0 00.109 1.547 3.5 3.5 0 00.406 1.219 2.171 2.171 0 00.813.813 3.014 3.014 0 002.609 0 2.21 2.21 0 00.8-.812 3.5 3.5 0 00.406-1.219 10.085 10.085 0 00.11-1.547V5.812h4.5v15.561a9 9 0 01-.594 3.516 5.6 5.6 0 01-1.594 2.2 5.4 5.4 0 01-2.281 1.094 12.356 12.356 0 01-2.656.281 13.841 13.841 0 01-2.656-.25 5.392 5.392 0 01-2.282-1.016 5.2 5.2 0 01-1.593-2.172 9.5 9.5 0 01-.594-3.656V5.812h4.5v15.561zM97.924 5.812h4.5v22.311h-4.5V5.812zm14.563 19a3.866 3.866 0 001.906-.406 2.783 2.783 0 001.14-1.344 7.847 7.847 0 00.563-2.469q.141-1.531.141-3.812 0-1.906-.125-3.344a8.291 8.291 0 00-.516-2.391 2.981 2.981 0 00-1.156-1.437 3.8 3.8 0 00-2.047-.484h-1.906v15.687h2zm.875-19a8.05 8.05 0 013.781.766 5.449 5.449 0 012.234 2.188 9.724 9.724 0 011.078 3.422 32.2 32.2 0 01.282 4.469 31.767 31.767 0 01-.36 5.109 9.77 9.77 0 01-1.234 3.578 5.421 5.421 0 01-2.344 2.094 8.78 8.78 0 01-3.719.688h-7.093V5.812h7.375zm15.28 13.9l2.157-10.031h.062l2.156 10.031h-4.375zm-.593-13.9l-5.907 22.313h4.688l1.031-4.719h5.938l1.031 4.719h4.687l-5.906-22.313h-5.562zm19.75 19a3.866 3.866 0 001.906-.406 2.79 2.79 0 001.141-1.344 7.877 7.877 0 00.562-2.469q.141-1.531.141-3.812 0-1.906-.125-3.344a8.291 8.291 0 00-.516-2.391 2.981 2.981 0 00-1.152-1.434 3.8 3.8 0 00-2.047-.484h-1.906v15.684h2zm.875-19a8.05 8.05 0 013.781.766 5.449 5.449 0 012.234 2.188 9.7 9.7 0 011.078 3.422 32.2 32.2 0 01.282 4.469 31.652 31.652 0 01-.36 5.109 9.752 9.752 0 01-1.233 3.576 5.421 5.421 0 01-2.344 2.094 8.78 8.78 0 01-3.719.688H141.3V5.812h7.375zm14.482 14.983a10.574 10.574 0 00.437 2.562 2.844 2.844 0 00.938 1.438 3.083 3.083 0 003.218 0 2.844 2.844 0 00.938-1.437 10.623 10.623 0 00.437-2.562q.109-1.578.11-3.828t-.11-3.812a10.82 10.82 0 00-.437-2.562 2.851 2.851 0 00-.938-1.453 3.083 3.083 0 00-3.218 0 2.851 2.851 0 00-.938 1.453 10.769 10.769 0 00-.437 2.56q-.111 1.563-.11 3.813t.11 3.828zm-4.375-8.5a10.356 10.356 0 011.031-3.672 5.775 5.775 0 012.3-2.391 9.883 9.883 0 018.062 0 5.775 5.775 0 012.3 2.391 10.356 10.356 0 011.031 3.672 46.711 46.711 0 010 9.359 10.324 10.324 0 01-1.035 3.658 5.479 5.479 0 01-2.3 2.344 10.406 10.406 0 01-8.062 0 5.479 5.479 0 01-2.3-2.344 10.324 10.324 0 01-1.031-3.656 46.711 46.711 0 01.006-9.361z" fill="#00aeef" fill-rule="evenodd"/></svg><svg width="175.19" height="24.66" viewBox="-1 -1 175.19 24.66" y="90.75" xmlns="http://www.w3.org/2000/svg"><path data-name="para tu piel." d="M6.488 10.103a2.967 2.967 0 002.172-.812 3.413 3.413 0 00.828-2.531 3.956 3.956 0 00-.719-2.562 2.951 2.951 0 00-2.406-.875H4.488v6.781h2zM7.863.009a6.5 6.5 0 012.891.578 5.28 5.28 0 011.891 1.516 5.931 5.931 0 011.031 2.141 9.733 9.733 0 01.313 2.453 8 8 0 01-.516 3 5.442 5.442 0 01-1.437 2.094 6.012 6.012 0 01-2.234 1.219 9.793 9.793 0 01-2.906.406H4.488v8.906h-4.5V.009h7.875zm13.282 13.907l2.156-10.032h.063l2.156 10.031h-4.375zM20.551.009l-5.906 22.313h4.688l1.031-4.719h5.938l1.031 4.719h4.688L26.113.009h-5.562zm21.344 0a6.267 6.267 0 014.375 1.422 5.57 5.57 0 011.562 4.328 6.73 6.73 0 01-.906 3.672 4.2 4.2 0 01-2.813 1.828v.063a4.078 4.078 0 012.469 1.094 4.634 4.634 0 01.969 2.719q.062.626.094 1.359t.062 1.641q.063 1.781.188 2.719a1.747 1.747 0 00.812 1.281v.188h-4.875a2.41 2.41 0 01-.437-1.078 11.759 11.759 0 01-.125-1.266l-.125-4.281a3.522 3.522 0 00-.657-2.062 2.4 2.4 0 00-2-.75h-2.406v9.438h-4.5V.009h8.313zm-1.938 9.75a3.679 3.679 0 002.5-.766 3.278 3.278 0 00.875-2.578q0-3.094-3.125-3.094h-2.125v6.438h1.875zm15.938 4.156l2.156-10.031h.062l2.156 10.032h-4.375zM55.301.009l-5.906 22.313h4.687l1.031-4.719h5.938l1.031 4.719h4.687L60.862.01H55.3zm33.593 3.688h-4.875v18.625h-4.5V3.697h-4.875V.009h14.25v3.688zm6.156 11.875a10.083 10.083 0 00.11 1.547 3.481 3.481 0 00.406 1.219 2.177 2.177 0 00.812.813 3.016 3.016 0 002.61 0 2.212 2.212 0 00.8-.812 3.523 3.523 0 00.406-1.219 10.089 10.089 0 00.109-1.547V.009h4.5v15.563a9.015 9.015 0 01-.593 3.516 5.615 5.615 0 01-1.594 2.2 5.4 5.4 0 01-2.281 1.094 12.365 12.365 0 01-2.657.281 13.849 13.849 0 01-2.656-.25 5.389 5.389 0 01-2.281-1.016 5.209 5.209 0 01-1.594-2.172 9.5 9.5 0 01-.594-3.656V.009h4.5v15.563zm26.594-5.469a2.97 2.97 0 002.172-.812 3.416 3.416 0 00.828-2.531 3.956 3.956 0 00-.719-2.562 2.951 2.951 0 00-2.406-.875h-1.875v6.781h2zM123.019.009a6.5 6.5 0 012.89.578 5.279 5.279 0 011.891 1.516 5.924 5.924 0 011.031 2.141 9.738 9.738 0 01.313 2.453 8 8 0 01-.516 3 5.447 5.447 0 01-1.437 2.094 6.017 6.017 0 01-2.235 1.219 9.794 9.794 0 01-2.906.406h-2.406v8.906h-4.5V.009h7.875zm8.562 0h4.5v22.313h-4.5V.009zm20.312 3.688h-7.968v5.247h7.5v3.69h-7.5v6h8.281v3.688h-12.781V.009h12.468v3.688zM154.456.01h4.5v18.624h7.968v3.688h-12.468V.009zm18.718 22.313h-4.125v-4.879h4.125v4.875z" fill="#00aeef" fill-rule="evenodd"/></svg><svg width="177.22" height="25.09" viewBox="-1 -1 177.22 25.09" y="35.19" xmlns="http://www.w3.org/2000/svg"><path data-name="Hydro Boost" d="M4.504.446v8.535h5.25V.449h4.5v22.313h-4.5v-9.906h-5.25v9.906h-4.5V.446h4.5zM23.91 9.071h.063L27.098.446h4.875l-5.782 13.535v8.781h-4.5v-8.781L15.91.449h5.063zm16.434 10.375a3.863 3.863 0 001.906-.406 2.783 2.783 0 001.141-1.344 7.844 7.844 0 00.562-2.468q.141-1.531.141-3.813 0-1.9-.125-3.344a8.248 8.248 0 00-.516-2.39 2.972 2.972 0 00-1.156-1.438 3.793 3.793 0 00-2.047-.484h-1.906v15.687h2zm.875-19A8.05 8.05 0 0145 1.212a5.461 5.461 0 012.235 2.187 9.75 9.75 0 011.078 3.422 32.379 32.379 0 01.281 4.469 31.761 31.761 0 01-.359 5.109A9.773 9.773 0 0147 19.978a5.416 5.416 0 01-2.344 2.093 8.767 8.767 0 01-3.718.688h-7.094V.446h7.375zm18.656 0a6.266 6.266 0 014.375 1.422 5.57 5.57 0 011.562 4.328 6.731 6.731 0 01-.906 3.672 4.194 4.194 0 01-2.812 1.828v.063a4.072 4.072 0 012.468 1.094 4.63 4.63 0 01.969 2.718q.063.625.094 1.36t.062 1.64q.063 1.782.188 2.719a1.746 1.746 0 00.812 1.281v.188h-4.875a2.413 2.413 0 01-.437-1.078 11.775 11.775 0 01-.125-1.266l-.125-4.281a3.531 3.531 0 00-.656-2.063 2.406 2.406 0 00-2-.75h-2.407v9.438h-4.5V.446h8.313zm-1.938 9.75a3.683 3.683 0 002.5-.765 3.28 3.28 0 00.875-2.578q0-3.095-3.125-3.094h-2.125v6.437h1.882zm15.141 5.235a10.612 10.612 0 00.438 2.562 2.846 2.846 0 00.937 1.438 3.086 3.086 0 003.219 0 2.846 2.846 0 00.937-1.438 10.612 10.612 0 00.438-2.562q.109-1.578.109-3.828t-.109-3.813a10.814 10.814 0 00-.438-2.562 2.853 2.853 0 00-.937-1.454 3.086 3.086 0 00-3.219 0 2.853 2.853 0 00-.937 1.454 10.814 10.814 0 00-.438 2.562q-.109 1.563-.109 3.813t.112 3.828zm-4.375-8.5a10.355 10.355 0 011.031-3.672 5.778 5.778 0 012.3-2.391 9.89 9.89 0 018.063 0 5.778 5.778 0 012.3 2.391 10.355 10.355 0 011.031 3.672 46.907 46.907 0 010 9.359 10.319 10.319 0 01-1.031 3.656 5.482 5.482 0 01-2.3 2.344 10.4 10.4 0 01-8.063 0 5.482 5.482 0 01-2.3-2.344 10.319 10.319 0 01-1.031-3.656 46.907 46.907 0 01.003-9.359zm31.359 12.515a4.4 4.4 0 002.625-.718 3.07 3.07 0 001-2.657 4.227 4.227 0 00-.266-1.609 2.7 2.7 0 00-.718-1.031 2.583 2.583 0 00-1.078-.547 5.677 5.677 0 00-1.375-.156h-1.938v6.718h1.75zm-.469-9.843a4.455 4.455 0 002.735-.672 2.71 2.71 0 00.859-2.266 2.8 2.8 0 00-.781-2.25 3.808 3.808 0 00-2.469-.656h-1.625v5.844h1.281zm1.75-9.157a10.871 10.871 0 012.547.282 5.226 5.226 0 012.016.937 4.324 4.324 0 011.312 1.75 6.819 6.819 0 01.469 2.688 5.57 5.57 0 01-.844 3.109 4.238 4.238 0 01-2.531 1.766v.062a4.425 4.425 0 012.969 1.594 5.524 5.524 0 011.094 3.594 8.955 8.955 0 01-.344 2.5 5.093 5.093 0 01-1.172 2.078 5.869 5.869 0 01-2.156 1.422 8.929 8.929 0 01-3.3.531h-7.594V.446h7.535zm13.985 14.985a10.568 10.568 0 00.437 2.562 2.847 2.847 0 00.938 1.438 3.084 3.084 0 003.218 0 2.847 2.847 0 00.938-1.438 10.617 10.617 0 00.437-2.562q.109-1.578.11-3.828t-.11-3.813a10.82 10.82 0 00-.437-2.562 2.855 2.855 0 00-.938-1.454 3.084 3.084 0 00-3.218 0 2.855 2.855 0 00-.938 1.454 10.769 10.769 0 00-.437 2.562q-.111 1.563-.11 3.813t.113 3.828zm-4.375-8.5a10.355 10.355 0 011.031-3.672 5.771 5.771 0 012.3-2.391 9.888 9.888 0 018.062 0 5.771 5.771 0 012.3 2.391 10.355 10.355 0 011.031 3.672 46.708 46.708 0 010 9.359 10.319 10.319 0 01-1.031 3.656 5.477 5.477 0 01-2.3 2.344 10.4 10.4 0 01-8.062 0 5.477 5.477 0 01-2.3-2.344 10.319 10.319 0 01-1.031-3.656 46.708 46.708 0 01.003-9.359zm21.75 8.5a10.568 10.568 0 00.437 2.562 2.847 2.847 0 00.938 1.438 3.084 3.084 0 003.218 0 2.847 2.847 0 00.938-1.438 10.617 10.617 0 00.437-2.562q.109-1.578.11-3.828t-.11-3.813a10.82 10.82 0 00-.437-2.562 2.855 2.855 0 00-.938-1.454 3.084 3.084 0 00-3.218 0 2.855 2.855 0 00-.938 1.454 10.769 10.769 0 00-.437 2.562q-.111 1.563-.11 3.813t.113 3.828zm-4.375-8.5a10.355 10.355 0 011.031-3.672 5.771 5.771 0 012.3-2.391 9.888 9.888 0 018.062 0 5.771 5.771 0 012.3 2.391 10.355 10.355 0 011.031 3.672 46.708 46.708 0 010 9.359 10.319 10.319 0 01-1.031 3.656 5.477 5.477 0 01-2.3 2.344 10.4 10.4 0 01-8.062 0 5.477 5.477 0 01-2.3-2.344 10.319 10.319 0 01-1.031-3.656 46.708 46.708 0 01.003-9.359zm21.234 9.515a7.473 7.473 0 00.125 1.422 2.468 2.468 0 00.469 1.078 2.307 2.307 0 00.922.688 3.665 3.665 0 001.453.25 2.875 2.875 0 001.859-.672 2.519 2.519 0 00.828-2.078 3.738 3.738 0 00-.2-1.3 2.567 2.567 0 00-.672-.984 4.739 4.739 0 00-1.234-.8 17.648 17.648 0 00-1.891-.735 16.134 16.134 0 01-2.593-1.093 7 7 0 01-1.829-1.391 4.984 4.984 0 01-1.078-1.844 7.771 7.771 0 01-.343-2.422 6.239 6.239 0 011.843-4.937 7.393 7.393 0 015.063-1.625 10.983 10.983 0 012.765.328 5.81 5.81 0 012.188 1.062 4.974 4.974 0 011.437 1.875 6.6 6.6 0 01.516 2.735v.625h-4.312a4.474 4.474 0 00-.563-2.453 2.071 2.071 0 00-1.875-.86 3.139 3.139 0 00-1.25.219 2.116 2.116 0 00-.8.578 2 2 0 00-.406.828 4.252 4.252 0 00-.109.969 3.216 3.216 0 00.437 1.734 3.918 3.918 0 001.875 1.3l3.469 1.5a10.662 10.662 0 012.094 1.172 5.716 5.716 0 011.3 1.313 4.362 4.362 0 01.672 1.547 8.652 8.652 0 01.188 1.875q0 3.531-2.047 5.14a9.017 9.017 0 01-5.7 1.61q-3.813 0-5.453-1.657a6.463 6.463 0 01-1.641-4.75v-.906h4.5v.656zm25.656-12.312h-4.874v18.625h-4.5V4.134h-4.875V.446h14.25v3.688z" fill="#00aeef" fill-rule="evenodd"/></svg></svg>